{"title":"Dylan.Dog.Dead.of.Night.2011.DVDRip.AC3.XViD-EP1C","uid":6470462,"size":1480401475,"categoryP":"video","categoryS":"movies","magnet":"?xt=urn:btih:18e25821b20767bd2a1f7a6809968882e6af3962&amp;dn=Dylan.Dog.Dead.of.Night.2011.DVDRip.AC3.XViD-EP1C&amp;tr=udp%3A%2F%2Ftracker.openbittorrent.com%3A80&amp;tr=udp%3A%2F%2Fopen.demonii.com%3A1337&amp;tr=udp%3A%2F%2Ftracker.coppersurfer.tk%3A6969&amp;tr=udp%3A%2F%2Fexodus.desync.com%3A6969","seeders":2,"leechers":0,"uploader":"HeroMaster","files":-1,"time":1308125863,"description":"::::::::::::  EP1C Presents  ::::::::::::\n\n::File:: Dylan.Dog.Dead.of.Night.2011.DVDRip.AC3.XViD-EP1C\n\n::Video Source:: DVD\n\n::Language:::::: English\n::IMDB:::::::::: http://www.imdb.com/title/tt1013860/\n\nThe adventures of supernatural private eye, Dylan Dog, who seeks\nout the monsters of the Louisiana bayou in his signature red shirt,\nblack jacket, and blue jeans.\n\n::Specs:::::::::\n\nFormat                           : AVI\nFormat/Info                      : Audio Video Interleave\nFile size                        : 1.37 GiB\nDuration                         : 1h 47mn\nOverall bit rate                 : 1 819 Kbps\nWriting application              : VirtualDubMod 1.5.10.2 (build 2540/release)\nWriting library                  : VirtualDubMod build 2540/release\n\nVideo\nID                               : 0\nFormat                           : MPEG-4 Visual\nFormat profile                   : Advanced Simple@L5\nFormat settings, BVOP            : Yes\nFormat settings, QPel            : No\nFormat settings, GMC             : No warppoints\nFormat settings, Matrix          : Default (MPEG)\nMuxing mode                      : Packed bitstream\nCodec ID                         : XVID\nCodec ID/Hint                    : XviD\nDuration                         : 1h 47mn\nBit rate                         : 1 425 Kbps\nWidth                            : 640 pixels\nHeight                           : 272 pixels\nDisplay aspect ratio             : 2.35:1\nFrame rate                       : 23.976 fps\nColor space                      : YUV\nChroma subsampling               : 4:2:0\nBit depth                        : 8 bits\nScan type                        : Progressive\nBits/(Pixel*Frame)               : 0.341\nStream size                      : 1.07 GiB (78%)\nWriting library                  : XviD 58\n\nAudio\nID                               : 1\nFormat                           : AC-3\nFormat/Info                      : Audio Coding 3\nMode extension                   : CM (complete main)\nCodec ID                         : 2000\nDuration                         : 1h 47mn\nBit rate mode                    : Constant\nBit rate                         : 384 Kbps\nChannel(s)                       : 6 channels\nChannel positions                : Front: L C R, Side: L R, LFE\nSampling rate                    : 48.0 KHz\nBit depth                        : 16 bits\nStream size                      : 296 MiB (21%)\nAlignment                        : Split accross interleaves\nInterleave, duration             : 42 ms (1.00 video frame)\nInterleave, preload duration     : 500 ms\n\n\n::NOTES:::::::::\nPresenting DVDRip of Dylan Dog: Dead of Night.\nEnjoy. //EP1C\n\n:: Got something we might be interested in? contact us: &lt;a class=&quot;__cf_email__&quot; href=&quot;/cdn-cgi/l/email-protection&quot; data-cfemail=&quot;f491849d97b49c81879c99959d98da9991&quot;&gt;[email&amp;#160;protected]&lt;/a&gt;&lt;script cf-hash='f9e31' type=&quot;text/javascript&quot;&gt;\n/* &lt;![CDATA[ */!function(){try{var t=&quot;currentScript&quot;in document?document.currentScript:function(){for(var t=document.getElementsByTagName(&quot;script&quot;),e=t.length;e--;)if(t[e].getAttribute(&quot;cf-hash&quot;))return t[e]}();if(t&amp;&amp;t.previousSibling){var e,r,n,i,c=t.previousSibling,a=c.getAttribute(&quot;data-cfemail&quot;);if(a){for(e=&quot;&quot;,r=parseInt(a.substr(0,2),16),n=2;a.length-n;n+=2)i=parseInt(a.substr(n,2),16)^r,e+=String.fromCharCode(i);e=document.createTextNode(e),c.parentNode.replaceChild(e,c)}}}catch(u){}}();/* ]]&gt; */&lt;/script&gt; ::\n\n::::::::::::::::::::::::::::::::  RESPECT  :::::::::::::::::::::::::::::::::\nIMAGiNE, Rx, FLAWL3SS, ViSiON, HiVE, bobwhite, Wobferry, Vik, OneTwo &amp; All Our Friends!\n\n                \n              ::::::::::::::::  We Are  ::::::::::::::::  \n              :::::: Surpassing the usual or ordinary ::::::\n::::::::::::::::::    Heroic and impressive in quality    ::::::::::::::::::    \n::::::::::::::::::::::::::::::::   EP1C   ::::::::::::::::::::::::::::::::\n\n\nScreens:\n\n &lt;a href=&quot;\nhttp://leetleech.org/images/37480437748949153763.png&quot; rel=&quot;nofollow&quot; target=&quot;_NEW&quot;&gt;\nhttp://leetleech.org/images/37480437748949153763.png&lt;/a&gt;\n &lt;a href=&quot;\nhttp://leetleech.org/images/05459677956989772639.png&quot; rel=&quot;nofollow&quot; target=&quot;_NEW&quot;&gt;\nhttp://leetleech.org/images/05459677956989772639.png&lt;/a&gt;\n &lt;a href=&quot;\nhttp://leetleech.org/images/01011425267919878414.png&quot; rel=&quot;nofollow&quot; target=&quot;_NEW&quot;&gt;\nhttp://leetleech.org/images/01011425267919878414.png&lt;/a&gt;\n\n\nENJOY!","torrent":{"xt":"urn:btih:18e25821b20767bd2a1f7a6809968882e6af3962","amp;dn":"Dylan.Dog.Dead.of.Night.2011.DVDRip.AC3.XViD-EP1C","amp;tr":["udp%3A%2F%2Ftracker.openbittorrent.com%3A80","udp%3A%2F%2Fopen.demonii.com%3A1337","udp%3A%2F%2Ftracker.coppersurfer.tk%3A6969","udp%3A%2F%2Fexodus.desync.com%3A6969"],"infoHash":"18e25821b20767bd2a1f7a6809968882e6af3962","infoHashBuffer":{"type":"Buffer","data":[24,226,88,33,178,7,103,189,42,31,122,104,9,150,136,130,230,175,57,98]},"announce":[],"urlList":[]}}